<svg width="25" height="25" viewBox="0 0 25 25" fill="none" xmlns="http://www.w3.org/2000/svg">
<path d="M21.5869 16.7595L12.9649 21.789L4.34278 16.7595C4.17097 16.6592 3.96637 16.6314 3.77401 16.682C3.58164 16.7326 3.41726 16.8576 3.31703 17.0294C3.21679 17.2012 3.18892 17.4058 3.23953 17.5981C3.29015 17.7905 3.41511 17.9549 3.58692 18.0551L12.5869 23.3051C12.7016 23.372 12.8321 23.4073 12.9649 23.4073C13.0977 23.4073 13.2281 23.372 13.3428 23.3051L22.3428 18.0551C22.4279 18.0055 22.5023 17.9396 22.5619 17.8612C22.6215 17.7828 22.6651 17.6934 22.6902 17.5981C22.7152 17.5029 22.7213 17.4036 22.708 17.306C22.6947 17.2085 22.6623 17.1144 22.6127 17.0294C22.5631 16.9443 22.4972 16.8698 22.4187 16.8102C22.3403 16.7506 22.251 16.707 22.1557 16.682C22.0605 16.6569 21.9612 16.6509 21.8636 16.6642C21.766 16.6775 21.672 16.7098 21.5869 16.7595Z" fill="#005CE8"/>
<path d="M21.5869 12.2595L12.9649 17.289L4.34278 12.2595C4.17097 12.1592 3.96637 12.1314 3.77401 12.182C3.58164 12.2326 3.41726 12.3576 3.31703 12.5294C3.21679 12.7012 3.18892 12.9058 3.23953 13.0981C3.29015 13.2905 3.41511 13.4549 3.58692 13.5551L12.5869 18.8051C12.7016 18.872 12.8321 18.9073 12.9649 18.9073C13.0977 18.9073 13.2281 18.872 13.3428 18.8051L22.3428 13.5551C22.5146 13.4549 22.6396 13.2905 22.6902 13.0981C22.7408 12.9058 22.7129 12.7012 22.6127 12.5294C22.5124 12.3576 22.3481 12.2326 22.1557 12.182C21.9633 12.1314 21.7587 12.1592 21.5869 12.2595Z" fill="#005CE8"/>
<path d="M3.58691 9.05513L12.5869 14.3051C12.7016 14.372 12.832 14.4073 12.9648 14.4073C13.0976 14.4073 13.2281 14.372 13.3428 14.3051L22.3428 9.05513C22.456 8.98908 22.5499 8.89451 22.6152 8.78084C22.6805 8.66717 22.7148 8.53838 22.7148 8.4073C22.7148 8.27622 22.6805 8.14743 22.6152 8.03377C22.5499 7.9201 22.456 7.82553 22.3428 7.75948L13.3428 2.50948C13.2281 2.44256 13.0976 2.4073 12.9648 2.4073C12.832 2.4073 12.7016 2.44256 12.5869 2.50948L3.58691 7.75948C3.47369 7.82553 3.37976 7.9201 3.31448 8.03377C3.2492 8.14743 3.21484 8.27622 3.21484 8.4073C3.21484 8.53838 3.2492 8.66717 3.31448 8.78084C3.37976 8.89451 3.47369 8.98908 3.58691 9.05513Z" fill="#005CE8"/>
</svg>
