<svg width="25" height="25" viewBox="0 0 25 25" fill="none" xmlns="http://www.w3.org/2000/svg">
<path d="M21.9436 2.79821C21.3805 2.23653 20.6176 1.92109 19.8223 1.92109C19.027 1.92109 18.2641 2.23653 17.701 2.79821C17.6914 2.80774 17.6822 2.81762 17.6731 2.8276L12.5261 8.56265L11.6633 7.69986C11.2413 7.27791 10.669 7.04086 10.0723 7.04086C9.47555 7.04086 8.90325 7.27791 8.48129 7.69986L1.29192 14.8892C1.15128 15.0299 1.07227 15.2207 1.07227 15.4196C1.07227 15.6185 1.15128 15.8093 1.29192 15.9499L8.79192 23.4499C8.9326 23.5906 9.12337 23.6696 9.32229 23.6696C9.5212 23.6696 9.71198 23.5906 9.85265 23.4499L17.042 16.2606C17.464 15.8386 17.701 15.2663 17.701 14.6696C17.701 14.0728 17.464 13.5005 17.042 13.0786L16.1792 12.2159L21.9143 7.06878C21.9242 7.05972 21.9341 7.05047 21.9437 7.04086C22.5054 6.47778 22.8209 5.71488 22.8208 4.91952C22.8208 4.12415 22.5053 3.36127 21.9436 2.79821ZM9.32229 21.8589L7.99839 20.535L10.3923 18.1413C10.5328 18.0006 10.6116 17.8098 10.6116 17.611C10.6115 17.4122 10.5325 17.2215 10.3919 17.0809C10.2513 16.9403 10.0606 16.8613 9.86179 16.8612C9.66296 16.8612 9.47223 16.94 9.33154 17.0805L6.93766 19.4743L5.37339 17.91L7.76727 15.5163C7.90776 15.3756 7.98664 15.1848 7.98656 14.986C7.98649 14.7872 7.90747 14.5965 7.76688 14.4559C7.62628 14.3153 7.43562 14.2363 7.23679 14.2362C7.03796 14.2362 6.84723 14.315 6.70654 14.4555L4.31266 16.8493L2.88293 15.4196L7.07229 11.2303L13.5116 17.6696L9.32229 21.8589Z" fill="#005CE8"/>
</svg>
