<svg width="17" height="19" viewBox="0 0 17 19" fill="none" xmlns="http://www.w3.org/2000/svg">
<path d="M6.87741 8.75237V14.2675M10.5541 8.75237V14.2675M1.3623 5.07563H16.0693M15.1501 5.07563L14.3531 16.2364C14.3201 16.7002 14.1126 17.1342 13.7723 17.4511C13.4321 17.768 12.9843 17.9442 12.5194 17.9442H4.91219C4.44722 17.9442 3.99951 17.768 3.65924 17.4511C3.31898 17.1342 3.11144 16.7002 3.07842 16.2364L2.28149 5.07563H15.1501ZM11.4733 5.07563V2.31808C11.4733 2.0743 11.3765 1.8405 11.2041 1.66812C11.0317 1.49574 10.7979 1.3989 10.5541 1.3989H6.87741C6.63363 1.3989 6.39983 1.49574 6.22745 1.66812C6.05507 1.8405 5.95823 2.0743 5.95823 2.31808V5.07563H11.4733Z" stroke="#F32D2D" stroke-width="1.4" stroke-linecap="round" stroke-linejoin="round"/>
</svg>
