<svg width="38" height="46" viewBox="0 0 38 46" fill="none" xmlns="http://www.w3.org/2000/svg">
<path d="M25.5004 2.20001V10C25.5004 11.436 26.6645 12.6 28.1004 12.6H35.9004M11.2004 12.6H16.4004M11.2004 20.4H26.8004M11.2004 28.2H26.8004M32.0004 6.10001C30.8433 5.06465 29.6425 3.83666 28.8844 3.03912C28.38 2.5084 27.683 2.20001 26.9509 2.20001H7.29981C4.42794 2.20001 2.09983 4.52812 2.09981 7.39998L2.09961 38.5999C2.09959 41.4717 4.4277 43.7999 7.29959 43.7999L30.6997 43.8C33.5715 43.8 35.8996 41.472 35.8997 38.6001L35.9004 11.0353C35.9004 10.3705 35.6468 9.73142 35.1854 9.2528C34.3321 8.36774 32.9073 6.91147 32.0004 6.10001Z" stroke="#2E65F3" stroke-width="4" stroke-linecap="round" stroke-linejoin="round"/>
</svg>
