<svg width="25" height="25" viewBox="0 0 25 25" fill="none" xmlns="http://www.w3.org/2000/svg">
<path d="M19.0587 5.95945C17.2433 4.16187 14.791 3.15466 12.2361 3.15729C12.2028 3.15729 12.1696 3.15745 12.1362 3.15775C9.84462 3.18164 7.63462 4.01188 5.89411 5.50275C4.1536 6.99363 2.99377 9.04988 2.61819 11.3106C2.24261 13.5714 2.67527 15.8922 3.84024 17.8658C5.0052 19.8393 6.82804 21.3396 8.98884 22.1031C9.44132 22.2626 9.92545 22.3113 10.4006 22.245C10.8758 22.1788 11.3281 21.9995 11.7197 21.7223C12.1113 21.4451 12.4307 21.078 12.6511 20.6518C12.8715 20.2257 12.9864 19.7529 12.9864 19.2731V18.9073C12.9868 18.5096 13.145 18.1283 13.4262 17.8471C13.7074 17.5659 14.0887 17.4077 14.4864 17.4073H18.8185C19.4989 17.4106 20.1601 17.1811 20.6922 16.757C21.2243 16.3329 21.5954 15.7396 21.744 15.0755C21.9114 14.3368 21.9926 13.5811 21.986 12.8237C21.9768 11.5427 21.7132 10.2763 21.2107 9.09801C20.7082 7.91968 19.9768 6.85286 19.0587 5.95945ZM8.57698 16.3191C8.38428 16.4303 8.16293 16.4819 7.9409 16.4674C7.71887 16.4528 7.50614 16.3728 7.32962 16.2373C7.15309 16.1018 7.0207 15.9171 6.94917 15.7064C6.87765 15.4957 6.87022 15.2685 6.92781 15.0536C6.9854 14.8387 7.10542 14.6457 7.27271 14.499C7.44 14.3522 7.64704 14.2584 7.86764 14.2294C8.08824 14.2004 8.3125 14.2374 8.51206 14.3358C8.71162 14.4342 8.87751 14.5896 8.98876 14.7823C9.06263 14.9102 9.11057 15.0515 9.12985 15.1979C9.14914 15.3444 9.13938 15.4933 9.10114 15.636C9.06291 15.7787 8.99694 15.9124 8.907 16.0296C8.81706 16.1468 8.70492 16.2452 8.57698 16.3191ZM8.98876 11.0323C8.87751 11.225 8.71161 11.3804 8.51205 11.4788C8.31249 11.5772 8.08824 11.6142 7.86764 11.5851C7.64704 11.5561 7.44001 11.4623 7.27272 11.3156C7.10544 11.1689 6.98541 10.9759 6.92782 10.7609C6.87024 10.546 6.87767 10.3189 6.94919 10.1082C7.02072 9.89746 7.15311 9.71271 7.32963 9.57726C7.50615 9.4418 7.71888 9.36174 7.9409 9.34718C8.16293 9.33263 8.38428 9.38424 8.57698 9.49549C8.70493 9.56936 8.81707 9.6677 8.90701 9.78491C8.99695 9.90212 9.06292 10.0359 9.10116 10.1786C9.1394 10.3213 9.14915 10.4702 9.12987 10.6166C9.11058 10.7631 9.06263 10.9043 8.98876 11.0323ZM12.2364 9.15729C12.0139 9.15729 11.7963 9.09131 11.6113 8.9677C11.4263 8.84408 11.2821 8.66838 11.197 8.46281C11.1118 8.25724 11.0896 8.03104 11.133 7.81282C11.1764 7.59459 11.2835 7.39413 11.4409 7.2368C11.5982 7.07946 11.7986 6.97232 12.0169 6.92891C12.2351 6.8855 12.4613 6.90778 12.6669 6.99293C12.8724 7.07808 13.0481 7.22227 13.1718 7.40728C13.2954 7.59228 13.3614 7.80979 13.3614 8.03229C13.3614 8.33066 13.2428 8.61681 13.0318 8.82779C12.8209 9.03877 12.5347 9.15729 12.2364 9.15729ZM17.0207 11.4441C16.828 11.5553 16.6067 11.6069 16.3846 11.5924C16.1626 11.5778 15.9499 11.4978 15.7734 11.3623C15.5968 11.2268 15.4644 11.0421 15.3929 10.8314C15.3214 10.6207 15.314 10.3935 15.3716 10.1786C15.4291 9.96368 15.5492 9.77066 15.7165 9.62395C15.8838 9.47724 16.0908 9.38344 16.3114 9.3544C16.532 9.32536 16.7563 9.36239 16.9558 9.4608C17.1554 9.55922 17.3213 9.7146 17.4325 9.90729C17.5064 10.0352 17.5543 10.1765 17.5736 10.3229C17.5929 10.4694 17.5831 10.6183 17.5449 10.761C17.5067 10.9037 17.4407 11.0374 17.3508 11.1546C17.2608 11.2718 17.1487 11.3702 17.0207 11.4441Z" fill="#005CE8"/>
</svg>
