<svg width="25" height="25" viewBox="0 0 25 25" fill="none" xmlns="http://www.w3.org/2000/svg">
<path d="M22.3254 9.1092L15.8861 2.66975C15.6045 2.38894 15.2231 2.23125 14.8254 2.23127C14.4277 2.23129 14.0463 2.38901 13.7647 2.66984L11.4099 5.02467L5.96744 7.06561C5.72119 7.15839 5.50359 7.31415 5.33637 7.51734C5.16915 7.72052 5.05816 7.96402 5.01447 8.22352L3.0676 19.9045C3.05454 19.9829 3.06671 20.0634 3.10235 20.1344C3.13799 20.2054 3.19527 20.2632 3.26592 20.2996C3.33657 20.336 3.41693 20.3489 3.49543 20.3367C3.57393 20.3244 3.6465 20.2875 3.70268 20.2313L8.86683 15.067C8.49543 14.4373 8.36649 13.6937 8.50419 12.9756C8.64189 12.2576 9.03677 11.6144 9.61479 11.1667C10.1928 10.719 10.9143 10.4975 11.6439 10.5438C12.3736 10.59 13.0613 10.9008 13.5782 11.4179C14.0951 11.935 14.4056 12.6228 14.4516 13.3525C14.4975 14.0822 14.2758 14.8036 13.8278 15.3814C13.3799 15.9593 12.7366 16.3539 12.0185 16.4913C11.3004 16.6287 10.5569 16.4995 9.92723 16.1279L4.76243 21.2929C4.70625 21.349 4.66937 21.4216 4.6571 21.5001C4.64483 21.5786 4.65781 21.659 4.69416 21.7296C4.73052 21.8003 4.78837 21.8575 4.85938 21.8932C4.93039 21.9288 5.01088 21.941 5.08925 21.9279L16.7718 19.9808C17.0312 19.9372 17.2747 19.8262 17.4779 19.659C17.6811 19.4918 17.8369 19.2742 17.9296 19.0279L19.9706 13.5854L22.3253 11.2306C22.4647 11.0913 22.5752 10.9259 22.6506 10.744C22.726 10.562 22.7648 10.3669 22.7648 10.1699C22.7648 9.97292 22.726 9.77785 22.6506 9.59586C22.5752 9.41386 22.4647 9.24849 22.3254 9.10921V9.1092ZM19.3254 12.1092L12.8861 5.66984L14.8254 3.73048L21.2647 10.1698L19.3254 12.1092Z" fill="#005CE8"/>
<path d="M11.4492 15.0449C12.2776 15.0449 12.9492 14.3733 12.9492 13.5449C12.9492 12.7164 12.2776 12.0449 11.4492 12.0449C10.6208 12.0449 9.94922 12.7164 9.94922 13.5449C9.94922 14.3733 10.6208 15.0449 11.4492 15.0449Z" fill="#005CE8"/>
</svg>
