<svg width="16" height="16" viewBox="0 0 16 16" fill="none" xmlns="http://www.w3.org/2000/svg">
<path d="M3.0498 13.4C3.39568 13.0126 5.01559 11.23 5.49031 11.23H10.5096C11.1975 11.23 12.6018 12.7077 12.9498 13.2286M15.1998 8C15.1998 11.9765 11.9763 15.2 7.9998 15.2C4.02335 15.2 0.799805 11.9765 0.799805 8C0.799805 4.02355 4.02335 0.800003 7.9998 0.800003C11.9763 0.800003 15.1998 4.02355 15.1998 8ZM10.5789 5.54597C10.5789 4.17234 9.41933 3.05 8.00002 3.05C6.58074 3.05 5.42111 4.17234 5.42111 5.54597C5.42111 6.9196 6.58074 8.04194 8.00002 8.04194C9.4193 8.04194 10.5789 6.9196 10.5789 5.54597Z" stroke="black"/>
</svg>
