<svg width="25" height="25" viewBox="0 0 25 25" fill="none" xmlns="http://www.w3.org/2000/svg">
<path d="M22.3242 6.48938V4.98938C22.3238 4.59169 22.1656 4.21043 21.8844 3.92922C21.6032 3.64802 21.2219 3.48983 20.8242 3.48938H4.32422C3.92653 3.48983 3.54527 3.64802 3.26406 3.92922C2.98285 4.21043 2.82467 4.59169 2.82422 4.98938V6.48938C2.82467 6.88707 2.98285 7.26833 3.26406 7.54954C3.54527 7.83074 3.92653 7.98893 4.32422 7.98938V16.9894H3.57422C3.37531 16.9894 3.18454 17.0684 3.04389 17.2091C2.90324 17.3497 2.82422 17.5405 2.82422 17.7394C2.82422 17.9383 2.90324 18.1291 3.04389 18.2697C3.18454 18.4104 3.37531 18.4894 3.57422 18.4894H11.8242V20.1184C11.3238 20.2953 10.9021 20.6435 10.6335 21.1013C10.3649 21.5591 10.2669 22.0971 10.3566 22.6202C10.4464 23.1433 10.7182 23.6179 11.124 23.96C11.5298 24.3021 12.0435 24.4897 12.5742 24.4897C13.105 24.4897 13.6187 24.3021 14.0245 23.96C14.4303 23.6179 14.7021 23.1433 14.7918 22.6202C14.8816 22.0971 14.7835 21.5591 14.5149 21.1013C14.2464 20.6435 13.8246 20.2953 13.3242 20.1184V18.4894H21.5742C21.7731 18.4894 21.9639 18.4104 22.1045 18.2697C22.2452 18.1291 22.3242 17.9383 22.3242 17.7394C22.3242 17.5405 22.2452 17.3497 22.1045 17.2091C21.9639 17.0684 21.7731 16.9894 21.5742 16.9894H20.8242V7.98938C21.2219 7.98893 21.6032 7.83074 21.8844 7.54954C22.1656 7.26833 22.3238 6.88707 22.3242 6.48938ZM10.3242 13.9894C10.3242 14.1883 10.2452 14.3791 10.1045 14.5197C9.9639 14.6604 9.77313 14.7394 9.57422 14.7394C9.37531 14.7394 9.18454 14.6604 9.04389 14.5197C8.90324 14.3791 8.82422 14.1883 8.82422 13.9894V12.4894C8.82422 12.2905 8.90324 12.0997 9.04389 11.9591C9.18454 11.8184 9.37531 11.7394 9.57422 11.7394C9.77313 11.7394 9.9639 11.8184 10.1045 11.9591C10.2452 12.0997 10.3242 12.2905 10.3242 12.4894V13.9894ZM12.5742 22.9894C12.4259 22.9894 12.2809 22.9454 12.1575 22.863C12.0342 22.7806 11.9381 22.6634 11.8813 22.5264C11.8245 22.3893 11.8097 22.2385 11.8386 22.0931C11.8676 21.9476 11.939 21.8139 12.0439 21.7091C12.1488 21.6042 12.2824 21.5327 12.4279 21.5038C12.5734 21.4749 12.7242 21.4897 12.8612 21.5465C12.9983 21.6032 13.1154 21.6994 13.1978 21.8227C13.2802 21.946 13.3242 22.091 13.3242 22.2394C13.324 22.4382 13.2449 22.6289 13.1043 22.7695C12.9637 22.9101 12.7731 22.9892 12.5742 22.9894ZM13.3242 13.9894C13.3242 14.1883 13.2452 14.3791 13.1045 14.5197C12.9639 14.6604 12.7731 14.7394 12.5742 14.7394C12.3753 14.7394 12.1845 14.6604 12.0439 14.5197C11.9032 14.3791 11.8242 14.1883 11.8242 13.9894V11.7394C11.8242 11.5405 11.9032 11.3497 12.0439 11.2091C12.1845 11.0684 12.3753 10.9894 12.5742 10.9894C12.7731 10.9894 12.9639 11.0684 13.1045 11.2091C13.2452 11.3497 13.3242 11.5405 13.3242 11.7394V13.9894ZM16.3242 13.9894C16.3242 14.1883 16.2452 14.3791 16.1045 14.5197C15.9639 14.6604 15.7731 14.7394 15.5742 14.7394C15.3753 14.7394 15.1845 14.6604 15.0439 14.5197C14.9032 14.3791 14.8242 14.1883 14.8242 13.9894V10.9894C14.8242 10.7905 14.9032 10.5997 15.0439 10.4591C15.1845 10.3184 15.3753 10.2394 15.5742 10.2394C15.7731 10.2394 15.9639 10.3184 16.1045 10.4591C16.2452 10.5997 16.3242 10.7905 16.3242 10.9894V13.9894ZM4.32422 6.48938V4.98938H20.8242L20.8251 6.48938H4.32422Z" fill="#005CE8"/>
</svg>
