<svg width="25" height="25" viewBox="0 0 25 25" fill="none" xmlns="http://www.w3.org/2000/svg">
<path d="M13.8223 20.7394H10.8223C10.6234 20.7394 10.4326 20.8184 10.2919 20.959C10.1513 21.0997 10.0723 21.2905 10.0723 21.4894C10.0723 21.6883 10.1513 21.8791 10.2919 22.0197C10.4326 22.1604 10.6234 22.2394 10.8223 22.2394H13.8223C14.0212 22.2394 14.2119 22.1604 14.3526 22.0197C14.4932 21.8791 14.5723 21.6883 14.5723 21.4894C14.5723 21.2905 14.4932 21.0997 14.3526 20.959C14.2119 20.8184 14.0212 20.7394 13.8223 20.7394Z" fill="#005CE8"/>
<path d="M20.9121 13.9761L18.0774 10.5745C17.9868 9.45404 17.7348 8.35256 17.3293 7.30417C16.2402 4.4718 14.3147 2.61676 13.2638 1.76303C12.9973 1.54853 12.6658 1.43106 12.3238 1.42992C11.9817 1.42878 11.6494 1.54404 11.3815 1.75676C10.3169 2.60962 8.36666 4.46328 7.26656 7.29607C6.84746 8.36818 6.59157 9.49711 6.50745 10.6452L3.73171 13.9761C3.58549 14.1527 3.4814 14.3602 3.42734 14.583C3.37328 14.8057 3.37067 15.0379 3.4197 15.2618L4.57876 20.4774C4.63368 20.7262 4.75117 20.957 4.9201 21.1478C5.08904 21.3386 5.30385 21.4832 5.54422 21.5679C5.78459 21.6525 6.04259 21.6745 6.29382 21.6317C6.54506 21.5889 6.78122 21.4828 6.98 21.3233L9.58495 19.2393H15.0589L17.6637 21.3233C17.9285 21.5364 18.2581 21.6527 18.5979 21.653C18.7687 21.6528 18.9382 21.6237 19.0992 21.5668C19.3399 21.4829 19.555 21.3387 19.7241 21.148C19.8932 20.9573 20.0106 20.7264 20.0651 20.4774L21.2241 15.2619C21.2732 15.0379 21.2706 14.8058 21.2165 14.583C21.1624 14.3602 21.0584 14.1527 20.9121 13.9761ZM6.04305 20.152L4.88399 14.9364L6.5646 12.9196C6.77767 14.6719 7.3758 16.4651 8.35901 18.2992L6.04305 20.152ZM12.3219 10.6143C12.0994 10.6143 11.8819 10.5484 11.6969 10.4247C11.5119 10.3011 11.3677 10.1254 11.2826 9.91986C11.1974 9.7143 11.1751 9.4881 11.2185 9.26987C11.2619 9.05164 11.3691 8.85118 11.5264 8.69385C11.6838 8.53652 11.8842 8.42937 12.1024 8.38596C12.3207 8.34255 12.5469 8.36483 12.7524 8.44998C12.958 8.53513 13.1337 8.67932 13.2573 8.86433C13.3809 9.04934 13.4469 9.26684 13.4469 9.48935C13.4469 9.78771 13.3284 10.0739 13.1174 10.2848C12.9064 10.4958 12.6203 10.6143 12.3219 10.6143ZM18.6008 20.152L16.2805 18.2958C17.2512 16.4488 17.8369 14.6401 18.0377 12.8698L19.7598 14.9364L18.6008 20.152Z" fill="#005CE8"/>
</svg>
