<svg width="21" height="21" viewBox="0 0 21 21" fill="none" xmlns="http://www.w3.org/2000/svg">
<path fill-rule="evenodd" clip-rule="evenodd" d="M11.9229 3.13797C11.4934 1.41723 8.98428 1.41723 8.5548 3.13797C8.49067 3.39654 8.3649 3.63668 8.18772 3.83885C8.01054 4.04102 7.78695 4.19951 7.53515 4.30142C7.28335 4.40333 7.01045 4.44578 6.73867 4.42531C6.46688 4.40485 6.20389 4.32205 5.97108 4.18365C4.42041 3.26151 2.64594 4.99328 3.59081 6.50665C4.20114 7.48394 3.65976 8.75905 2.52049 9.02929C0.756193 9.44735 0.756193 11.8972 2.52049 12.3141C2.7855 12.3768 3.0316 12.4997 3.23876 12.6727C3.44592 12.8458 3.60826 13.0641 3.71259 13.31C3.81691 13.5559 3.86025 13.8223 3.83909 14.0876C3.81793 14.3529 3.73286 14.6096 3.59081 14.8368C2.64594 16.3502 4.42041 18.0819 5.97108 17.1598C6.20384 17.0212 6.46686 16.9381 6.73872 16.9175C7.01058 16.8968 7.28359 16.9391 7.53553 17.0409C7.78747 17.1428 8.0112 17.3012 8.18852 17.5034C8.36584 17.7055 8.49172 17.9457 8.55592 18.2044C8.98428 19.9262 11.4945 19.9262 11.9218 18.2044C11.9862 17.9459 12.1122 17.7058 12.2895 17.5038C12.4669 17.3018 12.6906 17.1434 12.9425 17.0417C13.1943 16.9399 13.4672 16.8975 13.739 16.9181C14.0108 16.9386 14.2738 17.0214 14.5066 17.1598C16.0573 18.0819 17.8317 16.3502 16.8869 14.8368C16.7451 14.6096 16.6602 14.3529 16.6392 14.0877C16.6181 13.8224 16.6615 13.5561 16.7658 13.3103C16.8701 13.0645 17.0324 12.8462 17.2394 12.6731C17.4464 12.5 17.6923 12.377 17.9572 12.3141C19.7215 11.8961 19.7215 9.44624 17.9572 9.02929C17.6922 8.96664 17.4461 8.84378 17.2389 8.67073C17.0318 8.49768 16.8694 8.27932 16.7651 8.03345C16.6608 7.78757 16.6174 7.52113 16.6386 7.25581C16.6598 6.99049 16.7448 6.7338 16.8869 6.50665C17.8317 4.99328 16.0573 3.26151 14.5066 4.18365C14.2738 4.32228 14.0108 4.4053 13.739 4.42595C13.4671 4.4466 13.1941 4.4043 12.9422 4.30249C12.6902 4.20068 12.4665 4.04223 12.2892 3.84006C12.1118 3.63789 11.986 3.39771 11.9218 3.13907L11.9229 3.13797Z" stroke="#2E65F3" stroke-width="2"/>
<path d="M12.2481 10.6716C12.2481 11.7546 11.3485 12.6325 10.2388 12.6325C9.12917 12.6325 8.2296 11.7546 8.2296 10.6716C8.2296 9.58859 9.12917 8.71065 10.2388 8.71065C11.3485 8.71065 12.2481 9.58859 12.2481 10.6716Z" stroke="#2E65F3" stroke-width="2"/>
</svg>
